<svg
    xmlns="http://www.w3.org/2000/svg"
    viewBox="0 0 24 24"
    fill="none"
    stroke="black"
    stroke-width="2"
    stroke-linecap="round"
    stroke-linejoin="round"
    width="100"
    height="100">
    <path d="M12 2C10.5 2 9 3 9 4.5S10.5 7 12 7s3-1.5 3-2.5S13.5 2 12 2z"></path>
    <path d="M22 6c-2 0-5 1-6 1s-2.5 0-5-1-3-1-4-1-3 1-3 1v3c0 2 4 4 6 4s2.5 1 7 1 4 2 4 2v-3c-4.5 0-6-2-9-2-2.5 0-3.5 1-5 1l-3 1"></path>
    <path d="M12 7l3 1s3 0 6 3 1 8 0 10-4 2-6 1-2-2-2-2-2 0-2 2V21"></path>
</svg>