<?xml version="1.0" ?>
<svg height="64" id="svg5" version="1.1" viewBox="0 0 64 64" width="64" xml:space="preserve" xmlns="http://www.w3.org/2000/svg" xmlns:svg="http://www.w3.org/2000/svg">
<defs id="defs2"/>
<g id="layer1" transform="translate(0,-672)">
<path d="m 32.001094,683.99941 a 1,1 0 0 0 -1,1 v 1 h -1 a 1,1 0 0 0 -1,1 1,1 0 0 0 1,1 h 1 v 1.58594 l -5.707031,5.70703 a 1.0001,1.0001 0 0 0 0.707031,1.70703 h 1 v 7 a 1.0001,1.0001 0 0 0 1,1 h 8 a 1.0001,1.0001 0 0 0 1,-1 v -7 h 1 a 1.0001,1.0001 0 0 0 0.707031,-1.70703 l -5.707031,-5.70703 v -1.58594 h 1 a 1,1 0 0 0 1,-1 1,1 0 0 0 -1,-1 h -1 v -1 a 1,1 0 0 0 -1,-1 z m 0,7.41406 3.792969,3.79297 a 1.0001,1.0001 0 0 0 -0.792969,0.79297 v 7 h -6 v -7 a 1.0001,1.0001 0 0 0 -0.792969,-0.79297 z" id="path24235" style="color:#000000;fill:#444b54;fill-opacity:1;fill-rule:evenodd;stroke-linecap:round;stroke-linejoin:round;stroke-miterlimit:4.1"/>
<path d="m 25.008906,717.42715 c -0.810764,0.23895 -1.573895,0.51535 -2.265624,0.83398 -1.218803,0.56142 -2.240808,1.23996 -2.996094,2.0625 -0.45776,0.49852 -0.816225,1.06468 -1.029297,1.67578 h -0.716797 c -0.552285,0 -1,0.44772 -1,1 0,0.55229 0.447715,1 1,1 h 0.582031 c 0.167827,0.79653 0.587814,1.5326 1.164063,2.16016 0.755286,0.82254 1.777291,1.50109 2.996094,2.0625 2.20795,1.01704 5.079025,1.6476 8.257812,1.75781 v 1.01953 c 0,0.55229 0.447715,1 1,1 0.552285,0 1,-0.44771 1,-1 v -1.01953 c 3.178787,-0.11021 6.049862,-0.74077 8.257812,-1.75781 1.218804,-0.56141 2.240808,-1.23996 2.996094,-2.0625 0.576249,-0.62756 0.996236,-1.36363 1.164063,-2.16016 h 0.582031 c 0.552285,0 1,-0.44771 1,-1 0,-0.55228 -0.447715,-1 -1,-1 h -0.712891 c -0.457629,-1.3252 -1.621152,-2.42857 -3.103515,-3.26562 -0.481054,-0.27214 -1.091646,-0.10243 -1.363282,0.3789 -0.272137,0.48106 -0.102431,1.09165 0.378907,1.36329 0.867747,0.48999 1.466283,1.01002 1.83789,1.52343 h -0.03711 c -0.552285,0 -1,0.44772 -1,1 0,0.55229 0.447715,1 1,1 h 0.333984 c -0.115901,0.2603 -0.296507,0.5276 -0.552734,0.80664 -0.509777,0.55518 -1.318083,1.11906 -2.361328,1.59961 -1.874867,0.86362 -4.494173,1.45781 -7.419922,1.57032 -0.01273,-0.54311 -0.45674,-0.97672 -1,-0.97657 -0.5425,9.1e-4 -0.985333,0.43421 -0.998047,0.97657 -2.92653,-0.11232 -5.546594,-0.70651 -7.421875,-1.57032 -1.043245,-0.48055 -1.851551,-1.04443 -2.361328,-1.59961 -0.256227,-0.27904 -0.436833,-0.54634 -0.552734,-0.80664 h 0.333984 c 0.552285,0 1,-0.44771 1,-1 0,-0.55228 -0.447715,-1 -1,-1 h -0.04492 c 0.07774,-0.10593 0.163311,-0.21296 0.263672,-0.32226 0.509777,-0.55517 1.318083,-1.11906 2.361328,-1.59961 0.811753,-0.37392 1.765408,-0.6946 2.820313,-0.95117 -0.450838,-0.54131 -0.912121,-1.10393 -1.39258,-1.69922 z" id="path1328" style="color:#000000;fill:#444b54;fill-opacity:1;fill-rule:evenodd;stroke-linecap:round;stroke-linejoin:round;stroke-miterlimit:4.1"/>
<path d="m 32.001094,675.99941 c 10.481555,0 19,8.51845 19,19 0,5.57411 -4.659554,12.76781 -9.199219,18.82813 -4.539664,6.06031 -9.074218,10.85937 -9.074218,10.85937 a 1.00011,1.00011 0 0 1 -1.453125,0 c 0,0 -11.672509,-12.28085 -16.375,-22.57617 a 1.00001,1.00001 0 0 1 0.49414,-1.32617 1.00001,1.00001 0 0 1 1.326172,0.49414 c 4.179254,9.14978 14.127929,19.94674 15.296875,21.20703 0.960884,-1.03657 4.316049,-4.69437 8.183594,-9.85742 4.460321,-5.9544 8.800781,-13.26191 8.800781,-17.62891 0,-9.40066 -7.599335,-17 -17,-17 -9.400665,0 -17,7.59934 -17,17 a 1.00001,1.00001 0 0 1 -1,1 1.00001,1.00001 0 0 1 -1,-1 c 0,-10.48155 8.518445,-19 19,-19 z" id="path1332" style="color:#000000;fill:#444b54;fill-opacity:1;fill-rule:evenodd;stroke-linecap:round;stroke-linejoin:round;stroke-miterlimit:4.1"/>
<path d="m 14.48822,697.57889 a 1,1 0 0 1 1,1 1,1 0 0 1 -1,1 1,1 0 0 1 -1,-1 1,1 0 0 1 1,-1 z" id="path1334" style="color:#000000;fill:#444b54;fill-opacity:1;fill-rule:evenodd;stroke-linecap:round;stroke-linejoin:round;stroke-miterlimit:4.1"/>
<path d="m 32.001096,708.99941 c 2.31767,0 4.51168,-0.56438 6.43945,-1.56445 a 1.000005,1.000005 0 0 0 0.42578,-1.34961 1.000005,1.000005 0 0 0 -1.34765,-0.42578 c -1.65158,0.85678 -3.52441,1.33984 -5.51758,1.33984 -6.63922,0 -12,-5.36078 -12,-12 0,-1.48995 0.27131,-2.913 0.76563,-4.22656 a 1.000005,1.000005 0 0 0 -0.58399,-1.28711 1.000005,1.000005 0 0 0 -1.28906,0.58398 c -0.57735,1.53423 -0.89258,3.19717 -0.89258,4.92969 0,7.7201 6.27989,14 14,14 z m 11.63672,-6.71875 a 1.000005,1.000005 0 0 0 0.59961,-0.47461 c 1.12311,-2.01503 1.76367,-4.34008 1.76367,-6.80664 0,-7.7201 -6.27989,-14 -14,-14 -2.33914,0 -4.55148,0.57631 -6.49219,1.59375 a 1.000005,1.000005 0 0 0 -0.42187,1.34961 1.000005,1.000005 0 0 0 1.35156,0.42187 c 1.66271,-0.87169 3.55086,-1.36523 5.5625,-1.36523 6.63922,0 12,5.36078 12,12 0,2.12122 -0.54736,4.10728 -1.50977,5.83398 a 1.000005,1.000005 0 0 0 0.38672,1.35938 1.000005,1.000005 0 0 0 0.75977,0.0879 z" id="path1336" style="color:#000000;fill:#444b54;fill-opacity:1;fill-rule:evenodd;stroke-linecap:round;stroke-linejoin:round;stroke-miterlimit:4.1"/>
</g>
</svg>